<?xml version="1.0" encoding="UTF-8" standalone="no"?>
<!DOCTYPE svg PUBLIC "-//W3C//DTD SVG 1.1//EN" "http://www.w3.org/Graphics/SVG/1.1/DTD/svg11.dtd">
<svg width="100%" height="100%" viewBox="0 0 510 510" version="1.1" xmlns="http://www.w3.org/2000/svg" xmlns:xlink="http://www.w3.org/1999/xlink" xml:space="preserve" xmlns:serif="http://www.serif.com/" style="fill-rule:evenodd;clip-rule:evenodd;stroke-linecap:square;stroke-linejoin:round;stroke-miterlimit:2;">
    <g transform="matrix(1,0,0,0.879259,1,-70.7481)">
        <g>
            <path d="M466.1,249.15C466.7,243.55 467,238.55 467,233.65C467,152.35 400.9,86.15 319.5,86.15C272,86.15 227.7,108.85 200,147.25C190.8,144.75 181.4,143.45 172,143.45C115.9,143.45 69.8,187.05 65.8,242.15C28.8,246.15 0,277.45 0,315.45C0,356.15 33.1,389.15 73.7,389.15L172.5,389.15C191.2,410.05 217.7,421.95 245.8,421.95C266.4,421.95 286.5,415.45 303.2,403.45C319.8,415.35 340,421.95 360.6,421.95C388.7,421.95 415.2,410.05 433.9,389.15L434.4,389.15C475.1,389.15 508.1,356.05 508.1,315.45C508,287.25 491.4,261.35 466.1,249.15ZM434.3,372.95L426.2,372.95C426.2,372.95 407.1,405.75 360.5,405.75C324.8,405.75 303.1,382.75 303.1,382.75C303.1,382.75 281.8,405.75 245.7,405.75C202.9,405.75 180,372.95 180,372.95L73.7,372.95C42.1,372.95 16.3,347.25 16.3,315.55C16.3,283.95 42,258.15 73.7,258.15L81.9,258.15L81.9,249.95C81.9,200.25 122.3,159.85 172,159.85C189.9,159.85 206.7,166.65 206.7,166.65C206.7,166.65 243.6,102.55 319.5,102.55C391.8,102.55 450.6,161.35 450.6,233.65C450.6,247.65 448,259.55 448,259.55C448,259.55 491.5,273.75 491.5,315.55C491.6,347.25 465.9,372.95 434.3,372.95Z" style="fill-rule:nonzero;"/>
        </g>
    </g>
    <g>
        <g transform="matrix(1,0,0,0.879259,1,-70.7481)">
            <path d="M98.3,258.25L114.7,258.25C114.7,222.15 144.1,192.75 180.2,192.75L180.2,176.35C135.1,176.35 98.3,213.05 98.3,258.25Z" style="fill-rule:nonzero;"/>
        </g>
        <g transform="matrix(0.172385,0,0,0.151571,435.93,277.845)">
            <path d="M98.3,258.25L114.7,258.25C114.7,222.15 144.1,192.75 180.2,192.75L180.2,176.35C135.1,176.35 98.3,213.05 98.3,258.25Z" style="fill-rule:nonzero;stroke:rgb(59,161,63);stroke-width:17.4px;"/>
        </g>
        <g transform="matrix(9.56928e-18,-0.151571,0.172385,8.41387e-18,422.476,344.302)">
            <path d="M98.3,258.25L114.7,258.25C114.7,222.15 144.1,192.75 180.2,192.75L180.2,176.35C135.1,176.35 98.3,213.05 98.3,258.25Z" style="fill-rule:nonzero;stroke:rgb(59,161,63);stroke-width:17.4px;"/>
        </g>
        <g transform="matrix(1.07654e-17,0.151571,-0.172385,9.46557e-18,511.512,289.676)">
            <path d="M98.3,258.25L114.7,258.25C114.7,222.15 144.1,192.75 180.2,192.75L180.2,176.35C135.1,176.35 98.3,213.05 98.3,258.25Z" style="fill-rule:nonzero;stroke:rgb(59,161,63);stroke-width:17.4px;"/>
        </g>
        <g transform="matrix(0.391271,0,0,0.600885,411.631,162.092)">
            <path d="M144.26,227.847C144.26,227.691 144.152,227.543 143.961,227.433C143.769,227.323 143.509,227.261 143.238,227.261L139.755,227.261C139.484,227.261 139.224,227.323 139.032,227.433C138.841,227.543 138.733,227.691 138.733,227.847L138.733,324.18C138.733,324.336 138.841,324.485 139.032,324.594C139.224,324.704 139.484,324.766 139.755,324.766L143.238,324.766C143.509,324.766 143.769,324.704 143.961,324.594C144.152,324.485 144.26,324.336 144.26,324.18L144.26,227.847Z" style="fill:rgb(235,235,235);stroke:rgb(59,161,63);stroke-width:7.18px;stroke-linejoin:miter;stroke-miterlimit:1.5;"/>
        </g>
        <g transform="matrix(-0.172385,1.86682e-17,-2.12318e-17,-0.151571,498.058,378.437)">
            <path d="M98.3,258.25L114.7,258.25C114.7,222.15 144.1,192.75 180.2,192.75L180.2,176.35C135.1,176.35 98.3,213.05 98.3,258.25Z" style="fill-rule:nonzero;stroke:rgb(59,161,63);stroke-width:17.4px;stroke-linecap:butt;"/>
        </g>
        <g transform="matrix(1.13635e-17,0.151571,-0.172385,9.99146e-18,511.512,311.98)">
            <path d="M98.3,258.25L114.7,258.25C114.7,222.15 144.1,192.75 180.2,192.75L180.2,176.35C135.1,176.35 98.3,213.05 98.3,258.25Z" style="fill-rule:nonzero;stroke:rgb(59,161,63);stroke-width:17.4px;stroke-linecap:butt;"/>
        </g>
        <g transform="matrix(-3.19973e-17,-0.151571,0.172385,-2.81339e-17,422.476,366.607)">
            <path d="M98.3,258.25L114.7,258.25C114.7,222.15 144.1,192.75 180.2,192.75L180.2,176.35C135.1,176.35 98.3,213.05 98.3,258.25Z" style="fill-rule:nonzero;stroke:rgb(59,161,63);stroke-width:17.4px;stroke-linecap:butt;"/>
        </g>
        <g transform="matrix(0.172385,0,0,0.151571,71.315,362.019)">
            <path d="M98.3,258.25L114.7,258.25C114.7,222.15 144.1,192.75 180.2,192.75L180.2,176.35C135.1,176.35 98.3,213.05 98.3,258.25Z" style="fill-rule:nonzero;stroke:rgb(59,161,63);stroke-width:17.4px;"/>
        </g>
        <g transform="matrix(9.56928e-18,-0.151571,0.172385,8.41387e-18,57.86,428.475)">
            <path d="M98.3,258.25L114.7,258.25C114.7,222.15 144.1,192.75 180.2,192.75L180.2,176.35C135.1,176.35 98.3,213.05 98.3,258.25Z" style="fill-rule:nonzero;stroke:rgb(59,161,63);stroke-width:17.4px;"/>
        </g>
        <g transform="matrix(1.07654e-17,0.151571,-0.172385,9.46557e-18,146.897,373.849)">
            <path d="M98.3,258.25L114.7,258.25C114.7,222.15 144.1,192.75 180.2,192.75L180.2,176.35C135.1,176.35 98.3,213.05 98.3,258.25Z" style="fill-rule:nonzero;stroke:rgb(59,161,63);stroke-width:17.4px;"/>
        </g>
        <g transform="matrix(0.391271,0,0,0.600885,47.015,246.265)">
            <path d="M144.26,227.847C144.26,227.691 144.152,227.543 143.961,227.433C143.769,227.323 143.509,227.261 143.238,227.261L139.755,227.261C139.484,227.261 139.224,227.323 139.032,227.433C138.841,227.543 138.733,227.691 138.733,227.847L138.733,324.18C138.733,324.336 138.841,324.485 139.032,324.594C139.224,324.704 139.484,324.766 139.755,324.766L143.238,324.766C143.509,324.766 143.769,324.704 143.961,324.594C144.152,324.485 144.26,324.336 144.26,324.18L144.26,227.847Z" style="fill:rgb(235,235,235);stroke:rgb(59,161,63);stroke-width:7.18px;stroke-linejoin:miter;stroke-miterlimit:1.5;"/>
        </g>
        <g transform="matrix(-0.172385,1.86682e-17,-2.12318e-17,-0.151571,133.442,462.61)">
            <path d="M98.3,258.25L114.7,258.25C114.7,222.15 144.1,192.75 180.2,192.75L180.2,176.35C135.1,176.35 98.3,213.05 98.3,258.25Z" style="fill-rule:nonzero;stroke:rgb(59,161,63);stroke-width:17.4px;stroke-linecap:butt;"/>
        </g>
        <g transform="matrix(1.13635e-17,0.151571,-0.172385,9.99146e-18,146.897,396.153)">
            <path d="M98.3,258.25L114.7,258.25C114.7,222.15 144.1,192.75 180.2,192.75L180.2,176.35C135.1,176.35 98.3,213.05 98.3,258.25Z" style="fill-rule:nonzero;stroke:rgb(59,161,63);stroke-width:17.4px;stroke-linecap:butt;"/>
        </g>
        <g transform="matrix(-3.19973e-17,-0.151571,0.172385,-2.81339e-17,57.86,450.78)">
            <path d="M98.3,258.25L114.7,258.25C114.7,222.15 144.1,192.75 180.2,192.75L180.2,176.35C135.1,176.35 98.3,213.05 98.3,258.25Z" style="fill-rule:nonzero;stroke:rgb(59,161,63);stroke-width:17.4px;stroke-linecap:butt;"/>
        </g>
        <g transform="matrix(0.172385,0,0,0.151571,341.4,425.607)">
            <path d="M98.3,258.25L114.7,258.25C114.7,222.15 144.1,192.75 180.2,192.75L180.2,176.35C135.1,176.35 98.3,213.05 98.3,258.25Z" style="fill-rule:nonzero;stroke:rgb(59,161,63);stroke-width:17.4px;"/>
        </g>
        <g transform="matrix(9.56928e-18,-0.151571,0.172385,8.41387e-18,327.946,492.063)">
            <path d="M98.3,258.25L114.7,258.25C114.7,222.15 144.1,192.75 180.2,192.75L180.2,176.35C135.1,176.35 98.3,213.05 98.3,258.25Z" style="fill-rule:nonzero;stroke:rgb(59,161,63);stroke-width:17.4px;"/>
        </g>
        <g transform="matrix(1.07654e-17,0.151571,-0.172385,9.46557e-18,416.982,437.437)">
            <path d="M98.3,258.25L114.7,258.25C114.7,222.15 144.1,192.75 180.2,192.75L180.2,176.35C135.1,176.35 98.3,213.05 98.3,258.25Z" style="fill-rule:nonzero;stroke:rgb(59,161,63);stroke-width:17.4px;"/>
        </g>
        <g transform="matrix(0.391271,0,0,0.600885,317.1,309.853)">
            <path d="M144.26,227.847C144.26,227.691 144.152,227.543 143.961,227.433C143.769,227.323 143.509,227.261 143.238,227.261L139.755,227.261C139.484,227.261 139.224,227.323 139.032,227.433C138.841,227.543 138.733,227.691 138.733,227.847L138.733,324.18C138.733,324.336 138.841,324.485 139.032,324.594C139.224,324.704 139.484,324.766 139.755,324.766L143.238,324.766C143.509,324.766 143.769,324.704 143.961,324.594C144.152,324.485 144.26,324.336 144.26,324.18L144.26,227.847Z" style="fill:rgb(235,235,235);stroke:rgb(59,161,63);stroke-width:7.18px;stroke-linejoin:miter;stroke-miterlimit:1.5;"/>
        </g>
        <g transform="matrix(-0.172385,1.86682e-17,-2.12318e-17,-0.151571,403.528,526.198)">
            <path d="M98.3,258.25L114.7,258.25C114.7,222.15 144.1,192.75 180.2,192.75L180.2,176.35C135.1,176.35 98.3,213.05 98.3,258.25Z" style="fill-rule:nonzero;stroke:rgb(59,161,63);stroke-width:17.4px;stroke-linecap:butt;"/>
        </g>
        <g transform="matrix(1.13635e-17,0.151571,-0.172385,9.99146e-18,416.982,459.742)">
            <path d="M98.3,258.25L114.7,258.25C114.7,222.15 144.1,192.75 180.2,192.75L180.2,176.35C135.1,176.35 98.3,213.05 98.3,258.25Z" style="fill-rule:nonzero;stroke:rgb(59,161,63);stroke-width:17.4px;stroke-linecap:butt;"/>
        </g>
        <g transform="matrix(-3.19973e-17,-0.151571,0.172385,-2.81339e-17,327.946,514.368)">
            <path d="M98.3,258.25L114.7,258.25C114.7,222.15 144.1,192.75 180.2,192.75L180.2,176.35C135.1,176.35 98.3,213.05 98.3,258.25Z" style="fill-rule:nonzero;stroke:rgb(59,161,63);stroke-width:17.4px;stroke-linecap:butt;"/>
        </g>
        <g transform="matrix(0.172385,0,0,0.151571,223.986,320.523)">
            <path d="M98.3,258.25L114.7,258.25C114.7,222.15 144.1,192.75 180.2,192.75L180.2,176.35C135.1,176.35 98.3,213.05 98.3,258.25Z" style="fill-rule:nonzero;stroke:rgb(59,161,63);stroke-width:17.4px;"/>
        </g>
        <g transform="matrix(9.56928e-18,-0.151571,0.172385,8.41387e-18,210.532,386.979)">
            <path d="M98.3,258.25L114.7,258.25C114.7,222.15 144.1,192.75 180.2,192.75L180.2,176.35C135.1,176.35 98.3,213.05 98.3,258.25Z" style="fill-rule:nonzero;stroke:rgb(59,161,63);stroke-width:17.4px;"/>
        </g>
        <g transform="matrix(1.07654e-17,0.151571,-0.172385,9.46557e-18,299.568,332.352)">
            <path d="M98.3,258.25L114.7,258.25C114.7,222.15 144.1,192.75 180.2,192.75L180.2,176.35C135.1,176.35 98.3,213.05 98.3,258.25Z" style="fill-rule:nonzero;stroke:rgb(59,161,63);stroke-width:17.4px;"/>
        </g>
        <g transform="matrix(0.391271,0,0,0.600885,199.687,204.768)">
            <path d="M144.26,227.847C144.26,227.691 144.152,227.543 143.961,227.433C143.769,227.323 143.509,227.261 143.238,227.261L139.755,227.261C139.484,227.261 139.224,227.323 139.032,227.433C138.841,227.543 138.733,227.691 138.733,227.847L138.733,324.18C138.733,324.336 138.841,324.485 139.032,324.594C139.224,324.704 139.484,324.766 139.755,324.766L143.238,324.766C143.509,324.766 143.769,324.704 143.961,324.594C144.152,324.485 144.26,324.336 144.26,324.18L144.26,227.847Z" style="fill:rgb(235,235,235);stroke:rgb(59,161,63);stroke-width:7.18px;stroke-linejoin:miter;stroke-miterlimit:1.5;"/>
        </g>
        <g transform="matrix(-0.172385,1.86682e-17,-2.12318e-17,-0.151571,286.114,421.114)">
            <path d="M98.3,258.25L114.7,258.25C114.7,222.15 144.1,192.75 180.2,192.75L180.2,176.35C135.1,176.35 98.3,213.05 98.3,258.25Z" style="fill-rule:nonzero;stroke:rgb(59,161,63);stroke-width:17.4px;stroke-linecap:butt;"/>
        </g>
        <g transform="matrix(1.13635e-17,0.151571,-0.172385,9.99146e-18,299.568,354.658)">
            <path d="M98.3,258.25L114.7,258.25C114.7,222.15 144.1,192.75 180.2,192.75L180.2,176.35C135.1,176.35 98.3,213.05 98.3,258.25Z" style="fill-rule:nonzero;stroke:rgb(59,161,63);stroke-width:17.4px;stroke-linecap:butt;"/>
        </g>
        <g transform="matrix(-3.19973e-17,-0.151571,0.172385,-2.81339e-17,210.532,409.283)">
            <path d="M98.3,258.25L114.7,258.25C114.7,222.15 144.1,192.75 180.2,192.75L180.2,176.35C135.1,176.35 98.3,213.05 98.3,258.25Z" style="fill-rule:nonzero;stroke:rgb(59,161,63);stroke-width:17.4px;stroke-linecap:butt;"/>
        </g>
        <g transform="matrix(0.48639,0,0,0.548343,-2.179,163.973)">
            <path d="M141.658,238.412C141.658,238.242 141.571,238.079 141.417,237.959C141.263,237.838 141.053,237.771 140.835,237.771L137.466,237.771C137.248,237.771 137.039,237.838 136.885,237.959C136.731,238.079 136.644,238.242 136.644,238.412L136.644,333.17C136.644,333.34 136.731,333.503 136.885,333.623C137.039,333.744 137.248,333.811 137.466,333.811L140.835,333.811C141.053,333.811 141.263,333.744 141.417,333.623C141.571,333.503 141.658,333.34 141.658,333.17L141.658,238.412Z" style="fill:rgb(235,235,235);stroke:black;stroke-width:7.15px;stroke-linejoin:miter;stroke-miterlimit:1.5;"/>
        </g>
        <g transform="matrix(0.48639,0,0,0.548343,76.601,188.09)">
            <path d="M141.658,238.412C141.658,238.242 141.571,238.079 141.417,237.959C141.263,237.838 141.053,237.771 140.835,237.771L137.466,237.771C137.248,237.771 137.039,237.838 136.885,237.959C136.731,238.079 136.644,238.242 136.644,238.412L136.644,333.17C136.644,333.34 136.731,333.503 136.885,333.623C137.039,333.744 137.248,333.811 137.466,333.811L140.835,333.811C141.053,333.811 141.263,333.744 141.417,333.623C141.571,333.503 141.658,333.34 141.658,333.17L141.658,238.412Z" style="fill:rgb(235,235,235);stroke:black;stroke-width:7.15px;stroke-linejoin:miter;stroke-miterlimit:1.5;"/>
        </g>
        <g transform="matrix(0.48639,0,0,0.548343,123.629,240.753)">
            <path d="M141.658,238.412C141.658,238.242 141.571,238.079 141.417,237.959C141.263,237.838 141.053,237.771 140.835,237.771L137.466,237.771C137.248,237.771 137.039,237.838 136.885,237.959C136.731,238.079 136.644,238.242 136.644,238.412L136.644,333.17C136.644,333.34 136.731,333.503 136.885,333.623C137.039,333.744 137.248,333.811 137.466,333.811L140.835,333.811C141.053,333.811 141.263,333.744 141.417,333.623C141.571,333.503 141.658,333.34 141.658,333.17L141.658,238.412Z" style="fill:rgb(235,235,235);stroke:black;stroke-width:7.15px;stroke-linejoin:miter;stroke-miterlimit:1.5;"/>
        </g>
        <g transform="matrix(0.48639,0,0,0.548343,87.817,319.747)">
            <path d="M141.658,238.412C141.658,238.242 141.571,238.079 141.417,237.959C141.263,237.838 141.053,237.771 140.835,237.771L137.466,237.771C137.248,237.771 137.039,237.838 136.885,237.959C136.731,238.079 136.644,238.242 136.644,238.412L136.644,333.17C136.644,333.34 136.731,333.503 136.885,333.623C137.039,333.744 137.248,333.811 137.466,333.811L140.835,333.811C141.053,333.811 141.263,333.744 141.417,333.623C141.571,333.503 141.658,333.34 141.658,333.17L141.658,238.412Z" style="fill:rgb(235,235,235);stroke:black;stroke-width:7.15px;stroke-linejoin:miter;stroke-miterlimit:1.5;"/>
        </g>
        <g transform="matrix(0.48639,0,0,0.548343,167.397,320.453)">
            <path d="M141.658,238.412C141.658,238.242 141.571,238.079 141.417,237.959C141.263,237.838 141.053,237.771 140.835,237.771L137.466,237.771C137.248,237.771 137.039,237.838 136.885,237.959C136.731,238.079 136.644,238.242 136.644,238.412L136.644,333.17C136.644,333.34 136.731,333.503 136.885,333.623C137.039,333.744 137.248,333.811 137.466,333.811L140.835,333.811C141.053,333.811 141.263,333.744 141.417,333.623C141.571,333.503 141.658,333.34 141.658,333.17L141.658,238.412Z" style="fill:rgb(235,235,235);stroke:black;stroke-width:7.15px;stroke-linejoin:miter;stroke-miterlimit:1.5;"/>
        </g>
        <g transform="matrix(0.48639,0,0,0.548343,233.342,293.416)">
            <path d="M141.658,238.412C141.658,238.242 141.571,238.079 141.417,237.959C141.263,237.838 141.053,237.771 140.835,237.771L137.466,237.771C137.248,237.771 137.039,237.838 136.885,237.959C136.731,238.079 136.644,238.242 136.644,238.412L136.644,333.17C136.644,333.34 136.731,333.503 136.885,333.623C137.039,333.744 137.248,333.811 137.466,333.811L140.835,333.811C141.053,333.811 141.263,333.744 141.417,333.623C141.571,333.503 141.658,333.34 141.658,333.17L141.658,238.412Z" style="fill:rgb(235,235,235);stroke:black;stroke-width:7.15px;stroke-linejoin:miter;stroke-miterlimit:1.5;"/>
        </g>
        <g transform="matrix(0.48639,0,0,0.548343,380.094,277.65)">
            <path d="M141.658,238.412C141.658,238.242 141.571,238.079 141.417,237.959C141.263,237.838 141.053,237.771 140.835,237.771L137.466,237.771C137.248,237.771 137.039,237.838 136.885,237.959C136.731,238.079 136.644,238.242 136.644,238.412L136.644,333.17C136.644,333.34 136.731,333.503 136.885,333.623C137.039,333.744 137.248,333.811 137.466,333.811L140.835,333.811C141.053,333.811 141.263,333.744 141.417,333.623C141.571,333.503 141.658,333.34 141.658,333.17L141.658,238.412Z" style="fill:rgb(235,235,235);stroke:black;stroke-width:7.15px;stroke-linejoin:miter;stroke-miterlimit:1.5;"/>
        </g>
        <g transform="matrix(0.48639,0,0,0.548343,340.639,224.987)">
            <path d="M141.658,238.412C141.658,238.242 141.571,238.079 141.417,237.959C141.263,237.838 141.053,237.771 140.835,237.771L137.466,237.771C137.248,237.771 137.039,237.838 136.885,237.959C136.731,238.079 136.644,238.242 136.644,238.412L136.644,333.17C136.644,333.34 136.731,333.503 136.885,333.623C137.039,333.744 137.248,333.811 137.466,333.811L140.835,333.811C141.053,333.811 141.263,333.744 141.417,333.623C141.571,333.503 141.658,333.34 141.658,333.17L141.658,238.412Z" style="fill:rgb(235,235,235);stroke:black;stroke-width:7.15px;stroke-linejoin:miter;stroke-miterlimit:1.5;"/>
        </g>
        <g transform="matrix(0.48639,0,0,0.548343,274.237,214.422)">
            <path d="M141.658,238.412C141.658,238.242 141.571,238.079 141.417,237.959C141.263,237.838 141.053,237.771 140.835,237.771L137.466,237.771C137.248,237.771 137.039,237.838 136.885,237.959C136.731,238.079 136.644,238.242 136.644,238.412L136.644,333.17C136.644,333.34 136.731,333.503 136.885,333.623C137.039,333.744 137.248,333.811 137.466,333.811L140.835,333.811C141.053,333.811 141.263,333.744 141.417,333.623C141.571,333.503 141.658,333.34 141.658,333.17L141.658,238.412Z" style="fill:rgb(235,235,235);stroke:black;stroke-width:7.15px;stroke-linejoin:miter;stroke-miterlimit:1.5;"/>
        </g>
    </g>
</svg>
